<svg width="300" height="290" viewBox="0 0 300 290" fill="none" xmlns="http://www.w3.org/2000/svg">
<path opacity="0.08" d="M278.976 146.613C278.976 201.265 235.752 245.569 182.433 245.569C129.114 245.569 85.8902 201.265 85.8902 146.613C85.8902 91.9605 129.114 47.6562 182.433 47.6562C235.752 47.6562 278.976 91.9605 278.976 146.613Z" fill="#2D2E40"/>
<path opacity="0.5" d="M290.665 145.281C290.665 206.795 242.014 256.663 182 256.663C121.986 256.663 73.3354 206.795 73.3354 145.281C73.3354 83.7671 121.986 33.9 182 33.9C242.014 33.9 290.665 83.7671 290.665 145.281Z" stroke="#2D2E40"/>
<path opacity="0.25" d="M322.701 145.281C322.701 224.931 259.707 289.5 182 289.5C104.293 289.5 41.2988 224.931 41.2988 145.281C41.2988 65.6314 104.293 1.0625 182 1.0625C259.707 1.0625 322.701 65.6314 322.701 145.281Z" stroke="#2D2E40"/>
<g filter="url(#filter0_d)">
<path d="M281.573 67.1813H84.1585C78.4202 67.1813 73.7683 71.9494 73.7683 77.8313V210.069C73.7683 215.951 78.4202 220.719 84.1585 220.719H281.573C287.312 220.719 291.963 215.951 291.963 210.069V77.8313C291.963 71.9494 287.312 67.1813 281.573 67.1813Z" fill="#535353"/>
<path d="M282.439 68.9562H83.2927C78.5107 68.9562 74.6342 72.9297 74.6342 77.8312V210.956C74.6342 215.858 78.5107 219.831 83.2927 219.831H282.439C287.221 219.831 291.098 215.858 291.098 210.956V77.8312C291.098 72.9297 287.221 68.9562 282.439 68.9562Z" fill="#1D1D25"/>
<mask id="mask0" mask-type="alpha" maskUnits="userSpaceOnUse" x="80" y="74" width="206" height="141">
<path d="M283.305 74.2812H83.2927C81.8581 74.2812 80.6951 75.4733 80.6951 76.9437V211.79C80.6951 213.261 81.8581 214.453 83.2927 214.453H283.305C284.739 214.453 285.902 213.261 285.902 211.79V76.9437C285.902 75.4733 284.739 74.2812 283.305 74.2812Z" fill="white"/>
</mask>
<g mask="url(#mask0)">
<path d="M283.305 74.2812H83.2927C81.8581 74.2812 80.6951 75.4733 80.6951 76.9437V211.79C80.6951 213.261 81.8581 214.453 83.2927 214.453H283.305C284.739 214.453 285.902 213.261 285.902 211.79V76.9437C285.902 75.4733 284.739 74.2812 283.305 74.2812Z" fill="url(#paint0_linear)"/>
<path d="M283.173 99.4436H83.1611C81.7265 99.4436 80.5635 100.636 80.5635 102.106V211.898C80.5635 213.368 81.7265 214.56 83.1611 214.56H283.173C284.608 214.56 285.771 213.368 285.771 211.898V102.106C285.771 100.636 284.608 99.4436 283.173 99.4436Z" fill="#F9F6F6"/>
<path d="M150.335 89.9146H112.28C110.845 89.9146 109.682 91.1066 109.682 92.5771V194.316C109.682 195.786 110.845 196.978 112.28 196.978H150.335C151.769 196.978 152.932 195.786 152.932 194.316V92.5771C152.932 91.1066 151.769 89.9146 150.335 89.9146Z" fill="white"/>
<path d="M254.319 89.9146H162.891C161.457 89.9146 160.294 91.1066 160.294 92.5771V194.316C160.294 195.786 161.457 196.978 162.891 196.978H254.319C255.753 196.978 256.916 195.786 256.916 194.316V92.5771C256.916 91.1066 255.753 89.9146 254.319 89.9146Z" fill="white"/>
<path d="M250.177 95.599H167.032C165.597 95.599 164.434 96.791 164.434 98.2615V118.045C164.434 119.515 165.597 120.707 167.032 120.707H250.177C251.612 120.707 252.775 119.515 252.775 118.045V98.2615C252.775 96.791 251.612 95.599 250.177 95.599Z" fill="#E7E7E7"/>
<path d="M188.063 125.919H167.032C165.597 125.919 164.434 127.111 164.434 128.581V148.364C164.434 149.835 165.597 151.027 167.032 151.027H188.063C189.497 151.027 190.66 149.835 190.66 148.364V128.581C190.66 127.111 189.497 125.919 188.063 125.919Z" fill="#E7E7E7"/>
<path d="M250.177 125.919H199.7C198.265 125.919 197.102 127.111 197.102 128.581V148.364C197.102 149.835 198.265 151.027 199.7 151.027H250.177C251.612 151.027 252.775 149.835 252.775 148.364V128.581C252.775 127.111 251.612 125.919 250.177 125.919Z" fill="#E7E7E7"/>
</g>
<g opacity="0.098">
<path opacity="0.098" d="M186.866 60.9688H182.433C182.194 60.9688 182 61.1674 182 61.4125C182 61.6576 182.194 61.8562 182.433 61.8562H186.866C187.105 61.8562 187.299 61.6576 187.299 61.4125C187.299 61.1674 187.105 60.9688 186.866 60.9688Z" fill="#4A5166"/>
<path opacity="0.098" d="M189.36 60.9688H188.979C188.74 60.9688 188.546 61.1674 188.546 61.4125C188.546 61.6576 188.74 61.8562 188.979 61.8562H189.36C189.599 61.8562 189.793 61.6576 189.793 61.4125C189.793 61.1674 189.599 60.9688 189.36 60.9688Z" fill="#4A5166"/>
</g>
<mask id="mask1" mask-type="alpha" maskUnits="userSpaceOnUse" x="40" y="218" width="284" height="8">
<path d="M42.5976 218.944H321.362C322.051 218.944 322.711 219.224 323.199 219.724C323.686 220.223 323.959 220.9 323.959 221.606V225.691H40V221.606C40 220.9 40.2737 220.223 40.7608 219.724C41.2479 219.224 41.9086 218.944 42.5976 218.944V218.944Z" fill="white"/>
</mask>
<g mask="url(#mask1)">
<path d="M42.5976 218.944H321.362C322.051 218.944 322.711 219.224 323.199 219.724C323.686 220.223 323.959 220.9 323.959 221.606V225.691H40V221.606C40 220.9 40.2737 220.223 40.7608 219.724C41.2479 219.224 41.9086 218.944 42.5976 218.944V218.944Z" fill="#52526F"/>
<path d="M196.512 202.413H167.448C162.666 202.413 158.789 206.387 158.789 211.288V214.117C158.789 219.018 162.666 222.992 167.448 222.992H196.512C201.294 222.992 205.17 219.018 205.17 214.117V211.288C205.17 206.387 201.294 202.413 196.512 202.413Z" fill="#2F2F47"/>
</g>
<path d="M40 226.044H324C324 226.75 323.726 227.427 323.239 227.926C322.752 228.426 322.091 228.706 321.402 228.706H42.5976C41.9086 228.706 41.2479 228.426 40.7608 227.926C40.2737 227.427 40 226.75 40 226.044V226.044Z" fill="#393A56"/>
</g>
<defs>
<filter id="filter0_d" x="0" y="40.9688" width="364" height="247.738" filterUnits="userSpaceOnUse" color-interpolation-filters="sRGB">
<feFlood flood-opacity="0" result="BackgroundImageFix"/>
<feColorMatrix in="SourceAlpha" type="matrix" values="0 0 0 0 0 0 0 0 0 0 0 0 0 0 0 0 0 0 127 0"/>
<feOffset dy="20"/>
<feGaussianBlur stdDeviation="20"/>
<feColorMatrix type="matrix" values="0 0 0 0 0.421822 0 0 0 0 0.554338 0 0 0 0 0.89371 0 0 0 0.243444 0"/>
<feBlend mode="normal" in2="BackgroundImageFix" result="effect1_dropShadow"/>
<feBlend mode="normal" in="SourceGraphic" in2="effect1_dropShadow" result="shape"/>
</filter>
<linearGradient id="paint0_linear" x1="80.6951" y1="113.242" x2="253.381" y2="225.514" gradientUnits="userSpaceOnUse">
<stop stop-color="#FF8F71"/>
<stop offset="1" stop-color="#FF3E55"/>
</linearGradient>
</defs>
</svg>
