<svg width="350" height="366" viewBox="0 0 350 366" fill="none" xmlns="http://www.w3.org/2000/svg">
<path d="M151.585 22.94H57.526C50.3833 22.94 44.593 28.9882 44.593 36.449V269.172C44.593 276.633 50.3833 282.681 57.526 282.681H151.585C158.727 282.681 164.518 276.633 164.518 269.172V36.449C164.518 28.9882 158.727 22.94 151.585 22.94Z" fill="url(#paint0_linear)"/>
<path d="M78.1013 159.602V144.08H83.5779C84.5973 144.08 85.4779 144.244 86.2209 144.571C86.964 144.9 87.5372 145.366 87.9405 145.971C88.3437 146.575 88.546 147.286 88.546 148.102C88.546 148.845 88.3896 149.498 88.0786 150.059C87.7672 150.62 87.3108 151.078 86.7618 151.382C87.526 151.687 88.1209 152.172 88.5454 152.835C88.9698 153.498 89.182 154.282 89.182 155.186C89.182 156.089 88.9557 156.868 88.503 157.525C88.0504 158.18 87.4131 158.691 86.5925 159.055C85.7718 159.419 84.8024 159.601 83.6843 159.601H78.1013V159.602ZM81.1582 146.768V150.332H83.2387C83.9324 150.332 84.4662 150.183 84.8412 149.884C85.2163 149.585 85.4038 149.144 85.4038 148.561C85.4038 147.978 85.2157 147.534 84.8412 147.228C84.4662 146.922 83.9318 146.769 83.2387 146.769H81.1577L81.1582 146.768ZM81.1582 156.912H83.5356C84.328 156.912 84.9406 156.737 85.3721 156.388C85.8036 156.038 86.0193 155.535 86.0193 154.879C86.0193 154.223 85.8036 153.72 85.3721 153.371C84.94 153.021 84.328 152.846 83.5356 152.846H81.1582V156.912ZM91.0714 159.602V143.293H94.0437V159.602H91.0714ZM101.813 159.929C100.978 159.929 100.207 159.776 99.4991 159.47C98.8083 159.176 98.1805 158.741 97.652 158.191C97.1247 157.639 96.7096 156.981 96.4316 156.256C96.1412 155.514 95.9966 154.704 95.9966 153.83C95.9966 152.955 96.1447 152.15 96.4422 151.414C96.7312 150.691 97.153 150.034 97.6837 149.48C98.2177 148.924 98.8529 148.485 99.552 148.19C100.267 147.883 101.049 147.73 101.898 147.73C102.732 147.73 103.504 147.884 104.211 148.19C104.902 148.484 105.53 148.919 106.058 149.469C106.584 150.019 106.999 150.673 107.279 151.393C107.569 152.128 107.714 152.934 107.714 153.808C107.714 154.683 107.566 155.491 107.268 156.234C106.981 156.962 106.559 157.623 106.027 158.18C105.493 158.736 104.857 159.175 104.158 159.47C103.444 159.776 102.662 159.929 101.813 159.929V159.929ZM101.855 157.174C102.393 157.174 102.874 157.029 103.299 156.737C103.723 156.446 104.059 156.049 104.307 155.546C104.555 155.043 104.679 154.471 104.679 153.83C104.679 153.189 104.555 152.616 104.307 152.114C104.059 151.611 103.723 151.214 103.299 150.922C102.874 150.631 102.393 150.485 101.855 150.485C101.317 150.485 100.836 150.631 100.412 150.922C99.987 151.214 99.6513 151.611 99.4032 152.114C99.1563 152.617 99.0317 153.188 99.0317 153.83C99.0317 154.471 99.1558 155.043 99.4032 155.546C99.6513 156.049 99.987 156.446 100.412 156.737C100.836 157.029 101.317 157.174 101.855 157.174ZM114.273 159.273C113.589 159.278 112.912 159.129 112.289 158.836C111.681 158.55 111.135 158.137 110.686 157.623C110.226 157.093 109.866 156.478 109.624 155.808C109.37 155.116 109.242 154.369 109.242 153.568C109.242 152.737 109.373 151.968 109.635 151.261C109.884 150.576 110.259 149.949 110.739 149.414C111.208 148.893 111.771 148.473 112.395 148.179C113.024 147.88 113.707 147.73 114.443 147.73C115.165 147.73 115.816 147.88 116.396 148.179C116.976 148.477 117.473 148.924 117.84 149.479L117.903 148.058H120.642V158.224C120.642 159.113 120.504 159.922 120.228 160.651C119.966 161.357 119.565 161.998 119.05 162.531C118.531 163.062 117.913 163.475 117.235 163.744C116.534 164.028 115.759 164.17 114.911 164.17C114.076 164.17 113.325 164.035 112.66 163.766C112.017 163.51 111.426 163.128 110.92 162.64C110.428 162.165 110.031 161.592 109.752 160.956L112.597 160.236C112.841 160.648 113.18 160.99 113.584 161.23C113.987 161.47 114.443 161.591 114.953 161.591C115.505 161.591 115.982 161.463 116.386 161.208C116.791 160.951 117.118 160.58 117.33 160.137C117.557 159.678 117.67 159.142 117.67 158.53V157.59C117.286 158.116 116.787 158.54 116.216 158.825C115.628 159.124 114.981 159.273 114.273 159.273V159.273ZM114.995 156.562C115.518 156.562 115.983 156.427 116.386 156.158C116.791 155.886 117.124 155.51 117.351 155.065C117.592 154.606 117.712 154.085 117.712 153.502C117.712 152.919 117.592 152.398 117.351 151.939C117.124 151.495 116.791 151.119 116.386 150.846C115.982 150.576 115.519 150.441 114.995 150.441C114.472 150.441 114.008 150.576 113.605 150.846C113.199 151.119 112.867 151.495 112.639 151.939C112.398 152.398 112.278 152.919 112.278 153.502C112.278 154.085 112.399 154.606 112.639 155.065C112.88 155.524 113.202 155.888 113.605 156.158C114.008 156.428 114.471 156.562 114.995 156.562ZM123.02 159.602V148.058H125.758L125.864 149.807C126.147 149.195 126.529 148.725 127.01 148.397C127.491 148.069 128.058 147.905 128.709 147.905C128.906 147.905 129.105 147.923 129.303 147.96C129.501 147.996 129.678 148.044 129.834 148.101L129.515 151.119C129.36 151.061 129.2 151.02 129.038 150.998C128.872 150.976 128.705 150.965 128.538 150.965C127.718 150.965 127.088 151.224 126.65 151.741C126.211 152.259 125.991 152.991 125.991 153.938V159.601H123.02V159.602Z" fill="white"/>
<g filter="url(#filter0_d)">
<path d="M160.075 266.651C160.075 273.152 155.48 278.752 149.259 278.752H60.5394C54.3175 278.752 48.9079 273.152 48.9079 266.651V38.3274C48.9079 31.8265 54.3175 27.0738 60.5394 27.0738H70.7959C72.9646 27.0738 73.7652 26.8147 73.8969 29.6866C73.9651 31.1787 74.4889 32.338 75.3284 33.2978C76.1667 34.2397 77.3212 35.0134 78.6475 35.4475C79.5475 35.7423 80.5498 36.0088 81.5051 36.0088H128.388C129.344 36.0088 130.346 35.6809 131.246 35.3867C132.573 34.9526 133.726 34.228 134.565 33.3039C135.405 32.3613 135.929 31.2505 135.996 29.759C136.127 26.8877 136.929 27.0738 139.098 27.0738H149.259C155.48 27.0738 160.075 31.8265 160.075 38.3274V266.651V266.651ZM97.9988 28.1901H111.894C112.484 28.1901 112.964 28.5721 112.964 29.1204C112.964 29.6687 112.484 30.0513 111.894 30.0513H97.9988C97.408 30.0513 96.9301 29.6687 96.9301 29.1204C96.9301 28.5721 97.408 28.1901 97.9988 28.1901V28.1901ZM119.199 28.5107C119.199 28.9427 119.035 29.3571 118.742 29.6626C118.45 29.9681 118.053 30.1397 117.639 30.1397C117.226 30.1397 116.829 29.9681 116.537 29.6626C116.244 29.3571 116.08 28.9427 116.08 28.5107C116.08 28.0786 116.244 27.6642 116.537 27.3587C116.829 27.0532 117.226 26.8816 117.639 26.8816C118.053 26.8816 118.45 27.0532 118.742 27.3587C119.035 27.6642 119.199 28.0786 119.199 28.5107ZM166.844 80.6848V39.0612C166.844 28.534 158.677 20 148.602 20H59.9645C49.5728 20 41.0693 28.8852 41.0693 39.7446V54.9969C40.7858 54.9969 40.5139 55.1145 40.3134 55.3238C40.1129 55.5331 40.0002 55.8171 40 56.1132V63.9318C40 64.2281 40.1126 64.5123 40.3132 64.7219C40.5137 64.9314 40.7857 65.0492 41.0693 65.0494V74.3565C40.7857 74.3566 40.5137 74.4745 40.3132 74.684C40.1126 74.8936 40 75.1777 40 75.474V92.2276C40.0003 92.5237 40.1131 92.8076 40.3136 93.0169C40.5141 93.2262 40.7859 93.3438 41.0693 93.344V98.9287C40.7859 98.9289 40.5141 99.0465 40.3136 99.2558C40.1131 99.4651 40.0003 99.749 40 100.045V116.799C40 117.096 40.1126 117.38 40.3132 117.589C40.5137 117.799 40.7857 117.917 41.0693 117.917V267.508C41.0693 278.401 49.5987 287.315 60.0239 287.315H148.602C158.635 287.315 166.844 278.737 166.844 268.253V111.586H167.2C167.34 111.586 167.48 111.557 167.609 111.501C167.739 111.445 167.857 111.363 167.957 111.259C168.056 111.155 168.135 111.032 168.188 110.897C168.242 110.761 168.27 110.616 168.27 110.469V81.8024C168.27 81.1853 167.791 80.6848 167.2 80.6848H166.844V80.6848Z" fill="black"/>
</g>
<path d="M160.075 266.651C160.075 273.152 155.48 278.752 149.259 278.752H60.5394C54.3175 278.752 48.9079 273.152 48.9079 266.651V38.3274C48.9079 31.8265 54.3175 27.0738 60.5394 27.0738H70.7959C72.9646 27.0738 73.7652 26.8147 73.8969 29.6866C73.9651 31.1787 74.4889 32.338 75.3284 33.2978C76.1667 34.2397 77.3212 35.0134 78.6475 35.4475C79.5475 35.7423 80.5498 36.0088 81.5051 36.0088H128.388C129.344 36.0088 130.346 35.6809 131.246 35.3867C132.573 34.9526 133.726 34.228 134.565 33.3039C135.405 32.3613 135.929 31.2505 135.996 29.759C136.127 26.8877 136.929 27.0738 139.098 27.0738H149.259C155.48 27.0738 160.075 31.8265 160.075 38.3274V266.651V266.651ZM97.9988 28.1901H111.894C112.484 28.1901 112.964 28.5721 112.964 29.1204C112.964 29.6687 112.484 30.0513 111.894 30.0513H97.9988C97.408 30.0513 96.9301 29.6687 96.9301 29.1204C96.9301 28.5721 97.408 28.1901 97.9988 28.1901V28.1901ZM119.199 28.5107C119.199 28.9427 119.035 29.3571 118.742 29.6626C118.45 29.9681 118.053 30.1397 117.639 30.1397C117.226 30.1397 116.829 29.9681 116.537 29.6626C116.244 29.3571 116.08 28.9427 116.08 28.5107C116.08 28.0786 116.244 27.6642 116.537 27.3587C116.829 27.0532 117.226 26.8816 117.639 26.8816C118.053 26.8816 118.45 27.0532 118.742 27.3587C119.035 27.6642 119.199 28.0786 119.199 28.5107ZM166.844 80.6848V39.0612C166.844 28.534 158.677 20 148.602 20H59.9645C49.5728 20 41.0693 28.8852 41.0693 39.7446V54.9969C40.7858 54.9969 40.5139 55.1145 40.3134 55.3238C40.1129 55.5331 40.0002 55.8171 40 56.1132V63.9318C40 64.2281 40.1126 64.5123 40.3132 64.7219C40.5137 64.9314 40.7857 65.0492 41.0693 65.0494V74.3565C40.7857 74.3566 40.5137 74.4745 40.3132 74.684C40.1126 74.8936 40 75.1777 40 75.474V92.2276C40.0003 92.5237 40.1131 92.8076 40.3136 93.0169C40.5141 93.2262 40.7859 93.3438 41.0693 93.344V98.9287C40.7859 98.9289 40.5141 99.0465 40.3136 99.2558C40.1131 99.4651 40.0003 99.749 40 100.045V116.799C40 117.096 40.1126 117.38 40.3132 117.589C40.5137 117.799 40.7857 117.917 41.0693 117.917V267.508C41.0693 278.401 49.5987 287.315 60.0239 287.315H148.602C158.635 287.315 166.844 278.737 166.844 268.253V111.586H167.2C167.34 111.586 167.48 111.557 167.609 111.501C167.739 111.445 167.857 111.363 167.957 111.259C168.056 111.155 168.135 111.032 168.188 110.897C168.242 110.761 168.27 110.616 168.27 110.469V81.8024C168.27 81.1853 167.791 80.6848 167.2 80.6848H166.844V80.6848Z" fill="#1D1D25"/>
<path fill-rule="evenodd" clip-rule="evenodd" d="M111.894 28.1901H97.9988C97.408 28.1901 96.9295 28.5733 96.9295 29.1216C96.9295 29.6694 97.408 30.0519 97.9994 30.0519H111.894C112.485 30.0519 112.964 29.6694 112.964 29.1216C112.964 28.5733 112.485 28.1901 111.894 28.1901V28.1901ZM117.64 26.8822C117.226 26.8824 116.83 27.0542 116.537 27.3598C116.245 27.6654 116.081 28.0798 116.081 28.5119C116.081 28.9439 116.246 29.3582 116.538 29.6636C116.831 29.969 117.228 30.1405 117.641 30.1403C118.055 30.1402 118.451 29.9684 118.744 29.6628C119.036 29.3571 119.2 28.9427 119.2 28.5107C119.2 28.0786 119.036 27.6643 118.743 27.3589C118.45 27.0535 118.054 26.8821 117.64 26.8822" fill="black"/>
<path d="M300.315 61.6249H206.256C199.113 61.6249 193.323 67.673 193.323 75.1339V307.857C193.323 315.318 199.113 321.366 206.256 321.366H300.315C307.457 321.366 313.248 315.318 313.248 307.857V75.1339C313.248 67.673 307.457 61.6249 300.315 61.6249Z" fill="url(#paint1_linear)"/>
<path d="M295.809 65.3091H210.371C203.228 65.3091 197.438 71.3573 197.438 78.8181V306.212C197.438 313.673 203.228 319.721 210.371 319.721H295.809C302.951 319.721 308.742 313.673 308.742 306.212V78.8181C308.742 71.3573 302.951 65.3091 295.809 65.3091Z" fill="white"/>
<path d="M295.809 65.3091H210.371C203.228 65.3091 197.438 71.3573 197.438 78.8181V96.7906C197.438 104.251 203.228 110.3 210.371 110.3H295.809C302.951 110.3 308.742 104.251 308.742 96.7906V78.8181C308.742 71.3573 302.951 65.3091 295.809 65.3091Z" fill="url(#paint2_linear)"/>
<g filter="url(#filter1_d)">
<path d="M299.722 93.6964H206.458C205.159 93.6964 204.106 94.7961 204.106 96.1526V127.126C204.106 128.482 205.159 129.582 206.458 129.582H299.722C301.021 129.582 302.073 128.482 302.073 127.126V96.1526C302.073 94.7961 301.021 93.6964 299.722 93.6964Z" fill="black"/>
</g>
<path d="M299.722 93.6964H206.458C205.159 93.6964 204.106 94.7961 204.106 96.1526V127.126C204.106 128.482 205.159 129.582 206.458 129.582H299.722C301.021 129.582 302.073 128.482 302.073 127.126V96.1526C302.073 94.7961 301.021 93.6964 299.722 93.6964Z" fill="white"/>
<g filter="url(#filter2_d)">
<path d="M299.722 138.151H206.458C205.159 138.151 204.106 139.251 204.106 140.608V171.581C204.106 172.937 205.159 174.037 206.458 174.037H299.722C301.021 174.037 302.073 172.937 302.073 171.581V140.608C302.073 139.251 301.021 138.151 299.722 138.151Z" fill="black"/>
</g>
<path d="M299.722 138.151H206.458C205.159 138.151 204.106 139.251 204.106 140.608V171.581C204.106 172.937 205.159 174.037 206.458 174.037H299.722C301.021 174.037 302.073 172.937 302.073 171.581V140.608C302.073 139.251 301.021 138.151 299.722 138.151Z" fill="white"/>
<g filter="url(#filter3_d)">
<path d="M299.722 182.606H206.458C205.159 182.606 204.106 183.706 204.106 185.063V216.036C204.106 217.392 205.159 218.492 206.458 218.492H299.722C301.021 218.492 302.073 217.392 302.073 216.036V185.063C302.073 183.706 301.021 182.606 299.722 182.606Z" fill="black"/>
</g>
<path d="M299.722 182.606H206.458C205.159 182.606 204.106 183.706 204.106 185.063V216.036C204.106 217.392 205.159 218.492 206.458 218.492H299.722C301.021 218.492 302.073 217.392 302.073 216.036V185.063C302.073 183.706 301.021 182.606 299.722 182.606Z" fill="white"/>
<g filter="url(#filter4_d)">
<path d="M299.722 227.062H206.458C205.159 227.062 204.106 228.162 204.106 229.518V260.491C204.106 261.848 205.159 262.947 206.458 262.947H299.722C301.021 262.947 302.073 261.848 302.073 260.491V229.518C302.073 228.162 301.021 227.062 299.722 227.062Z" fill="black"/>
</g>
<path d="M299.722 227.062H206.458C205.159 227.062 204.106 228.162 204.106 229.518V260.491C204.106 261.848 205.159 262.947 206.458 262.947H299.722C301.021 262.947 302.073 261.848 302.073 260.491V229.518C302.073 228.162 301.021 227.062 299.722 227.062Z" fill="white"/>
<g filter="url(#filter5_d)">
<path d="M299.722 271.517H206.458C205.159 271.517 204.106 272.617 204.106 273.973V304.946C204.106 306.303 205.159 307.402 206.458 307.402H299.722C301.021 307.402 302.073 306.303 302.073 304.946V273.973C302.073 272.617 301.021 271.517 299.722 271.517Z" fill="black"/>
</g>
<path d="M299.722 271.517H206.458C205.159 271.517 204.106 272.617 204.106 273.973V304.946C204.106 306.303 205.159 307.402 206.458 307.402H299.722C301.021 307.402 302.073 306.303 302.073 304.946V273.973C302.073 272.617 301.021 271.517 299.722 271.517Z" fill="white"/>
<path d="M226.831 198.287V182.765H232.308C233.327 182.765 234.208 182.929 234.951 183.256C235.694 183.585 236.267 184.051 236.67 184.656C237.074 185.26 237.276 185.971 237.276 186.787C237.276 187.53 237.12 188.183 236.809 188.744C236.497 189.305 236.041 189.763 235.492 190.066C236.256 190.372 236.851 190.857 237.275 191.52C237.7 192.183 237.912 192.967 237.912 193.87C237.912 194.774 237.686 195.553 237.233 196.209C236.78 196.865 236.143 197.375 235.323 197.74C234.502 198.104 233.532 198.286 232.414 198.286H226.831V198.287ZM229.888 185.453V189.017H231.969C232.662 189.017 233.196 188.868 233.571 188.569C233.946 188.27 234.134 187.829 234.134 187.246C234.134 186.663 233.946 186.219 233.571 185.912C233.196 185.607 232.662 185.454 231.969 185.454H229.888L229.888 185.453ZM229.888 195.597H232.266C233.058 195.597 233.671 195.422 234.102 195.073C234.534 194.723 234.749 194.22 234.749 193.564C234.749 192.908 234.534 192.405 234.102 192.056C233.67 191.706 233.058 191.531 232.266 191.531H229.888V195.597ZM239.801 198.287V181.978H242.774V198.287H239.801ZM250.543 198.614C249.708 198.614 248.937 198.461 248.229 198.155C247.538 197.861 246.911 197.426 246.382 196.876C245.855 196.324 245.44 195.666 245.162 194.941C244.871 194.198 244.727 193.389 244.727 192.515C244.727 191.64 244.875 190.835 245.172 190.099C245.461 189.376 245.883 188.719 246.414 188.165C246.948 187.609 247.583 187.17 248.282 186.875C248.997 186.568 249.779 186.415 250.628 186.415C251.462 186.415 252.234 186.569 252.941 186.875C253.632 187.169 254.26 187.604 254.789 188.154C255.314 188.703 255.729 189.358 256.009 190.077C256.299 190.813 256.444 191.619 256.444 192.493C256.444 193.368 256.296 194.176 255.998 194.919C255.711 195.647 255.289 196.308 254.757 196.865C254.223 197.421 253.588 197.86 252.889 198.155C252.174 198.461 251.392 198.614 250.543 198.614V198.614ZM250.585 195.859C251.123 195.859 251.604 195.714 252.029 195.422C252.454 195.131 252.789 194.734 253.037 194.231C253.285 193.728 253.409 193.156 253.409 192.515C253.409 191.874 253.285 191.301 253.037 190.798C252.789 190.296 252.454 189.899 252.029 189.607C251.604 189.315 251.123 189.17 250.585 189.17C250.047 189.17 249.567 189.315 249.142 189.607C248.717 189.899 248.381 190.296 248.133 190.798C247.886 191.302 247.762 191.873 247.762 192.515C247.762 193.156 247.886 193.728 248.133 194.231C248.381 194.734 248.717 195.131 249.142 195.422C249.567 195.714 250.047 195.859 250.585 195.859ZM263.003 197.958C262.319 197.963 261.642 197.814 261.019 197.521C260.411 197.235 259.865 196.822 259.416 196.308C258.956 195.778 258.596 195.162 258.355 194.493C258.1 193.801 257.972 193.054 257.972 192.252C257.972 191.422 258.103 190.653 258.365 189.946C258.614 189.261 258.989 188.633 259.469 188.099C259.938 187.578 260.501 187.158 261.125 186.864C261.754 186.565 262.437 186.415 263.173 186.415C263.895 186.415 264.546 186.565 265.126 186.864C265.706 187.162 266.203 187.609 266.57 188.164L266.633 186.743H269.372V196.909C269.372 197.798 269.234 198.607 268.958 199.335C268.696 200.042 268.295 200.682 267.78 201.216C267.261 201.746 266.644 202.159 265.965 202.429C265.264 202.713 264.489 202.855 263.641 202.855C262.806 202.855 262.055 202.72 261.39 202.45C260.747 202.195 260.156 201.813 259.65 201.325C259.158 200.849 258.761 200.277 258.482 199.641L261.327 198.92C261.571 199.333 261.911 199.675 262.314 199.915C262.717 200.155 263.173 200.276 263.683 200.276C264.235 200.276 264.712 200.148 265.116 199.893C265.521 199.636 265.848 199.264 266.06 198.821C266.287 198.363 266.4 197.827 266.4 197.215V196.275C266.016 196.801 265.517 197.225 264.946 197.51C264.358 197.809 263.711 197.958 263.003 197.958V197.958ZM263.725 195.247C264.248 195.247 264.713 195.112 265.116 194.843C265.521 194.571 265.854 194.194 266.081 193.75C266.322 193.291 266.442 192.77 266.442 192.187C266.442 191.603 266.322 191.083 266.081 190.624C265.854 190.18 265.521 189.803 265.116 189.531C264.712 189.261 264.249 189.126 263.725 189.126C263.202 189.126 262.738 189.261 262.335 189.531C261.929 189.803 261.597 190.18 261.369 190.624C261.128 191.083 261.008 191.604 261.008 192.187C261.008 192.77 261.129 193.291 261.369 193.75C261.61 194.209 261.932 194.573 262.335 194.843C262.738 195.113 263.201 195.247 263.725 195.247ZM271.75 198.287V186.743H274.488L274.594 188.491C274.877 187.88 275.259 187.409 275.74 187.082C276.222 186.754 276.788 186.59 277.439 186.59C277.637 186.59 277.835 186.608 278.033 186.644C278.231 186.681 278.408 186.728 278.564 186.786L278.245 189.804C278.09 189.746 277.93 189.705 277.768 189.683C277.602 189.661 277.435 189.65 277.268 189.65C276.448 189.65 275.818 189.909 275.38 190.426C274.941 190.944 274.721 191.676 274.721 192.623V198.285H271.75V198.287Z" fill="white"/>
<g filter="url(#filter6_d)">
<path d="M308.805 305.336C308.805 311.836 304.21 317.437 297.989 317.437H209.269C203.048 317.437 197.638 311.836 197.638 305.336V77.0122C197.638 70.5113 203.048 65.7586 209.269 65.7586H219.526C221.695 65.7586 222.495 65.4995 222.627 68.3714C222.695 69.8635 223.219 71.0228 224.058 71.9826C224.897 72.9245 226.051 73.6982 227.378 74.1323C228.278 74.4271 229.28 74.6936 230.235 74.6936H277.118C278.074 74.6936 279.076 74.3657 279.976 74.0715C281.303 73.6374 282.456 72.9128 283.295 71.9887C284.135 71.0462 284.659 69.9353 284.726 68.4438C284.857 65.5726 285.659 65.7586 287.828 65.7586H297.989C304.21 65.7586 308.805 70.5113 308.805 77.0122V305.336V305.336ZM246.729 66.8749H260.624C261.214 66.8749 261.694 67.2569 261.694 67.8052C261.694 68.3536 261.214 68.7361 260.624 68.7361H246.729C246.138 68.7361 245.66 68.3536 245.66 67.8052C245.66 67.2569 246.138 66.8749 246.729 66.8749V66.8749ZM267.929 67.1955C267.929 67.6275 267.765 68.0419 267.472 68.3474C267.18 68.6529 266.783 68.8245 266.369 68.8245C265.956 68.8245 265.559 68.6529 265.267 68.3474C264.974 68.0419 264.81 67.6275 264.81 67.1955C264.81 66.7634 264.974 66.3491 265.267 66.0436C265.559 65.738 265.956 65.5664 266.369 65.5664C266.783 65.5664 267.18 65.738 267.472 66.0436C267.765 66.3491 267.929 66.7634 267.929 67.1955ZM315.574 119.37V77.746C315.574 67.2188 307.407 58.6848 297.332 58.6848H208.695C198.303 58.6848 189.799 67.57 189.799 78.4294V93.6817C189.516 93.6817 189.244 93.7993 189.043 94.0086C188.843 94.2179 188.73 94.5019 188.73 94.798V102.617C188.73 102.913 188.843 103.197 189.043 103.407C189.244 103.616 189.516 103.734 189.799 103.734V113.041C189.516 113.041 189.244 113.159 189.043 113.369C188.843 113.578 188.73 113.863 188.73 114.159V130.912C188.73 131.209 188.843 131.492 189.044 131.702C189.244 131.911 189.516 132.029 189.799 132.029V137.614C189.516 137.614 189.244 137.731 189.044 137.941C188.843 138.15 188.73 138.434 188.73 138.73V155.484C188.73 155.78 188.843 156.065 189.043 156.274C189.244 156.484 189.516 156.601 189.799 156.602V306.193C189.799 317.086 198.329 326 208.754 326H297.332C307.365 326 315.574 317.422 315.574 306.938V150.271H315.93C316.071 150.271 316.21 150.242 316.339 150.186C316.469 150.13 316.587 150.048 316.687 149.944C316.786 149.84 316.865 149.717 316.919 149.581C316.972 149.446 317 149.301 317 149.154V120.487C317 119.87 316.521 119.37 315.93 119.37H315.574V119.37Z" fill="black"/>
</g>
<path d="M308.805 305.336C308.805 311.836 304.21 317.437 297.989 317.437H209.269C203.048 317.437 197.638 311.836 197.638 305.336V77.0122C197.638 70.5113 203.048 65.7586 209.269 65.7586H219.526C221.695 65.7586 222.495 65.4995 222.627 68.3714C222.695 69.8635 223.219 71.0228 224.058 71.9826C224.897 72.9245 226.051 73.6982 227.378 74.1323C228.278 74.4271 229.28 74.6936 230.235 74.6936H277.118C278.074 74.6936 279.076 74.3657 279.976 74.0715C281.303 73.6374 282.456 72.9128 283.295 71.9887C284.135 71.0462 284.659 69.9353 284.726 68.4438C284.857 65.5726 285.659 65.7586 287.828 65.7586H297.989C304.21 65.7586 308.805 70.5113 308.805 77.0122V305.336V305.336ZM246.729 66.8749H260.624C261.214 66.8749 261.694 67.2569 261.694 67.8052C261.694 68.3536 261.214 68.7361 260.624 68.7361H246.729C246.138 68.7361 245.66 68.3536 245.66 67.8052C245.66 67.2569 246.138 66.8749 246.729 66.8749V66.8749ZM267.929 67.1955C267.929 67.6275 267.765 68.0419 267.472 68.3474C267.18 68.6529 266.783 68.8245 266.369 68.8245C265.956 68.8245 265.559 68.6529 265.267 68.3474C264.974 68.0419 264.81 67.6275 264.81 67.1955C264.81 66.7634 264.974 66.3491 265.267 66.0436C265.559 65.738 265.956 65.5664 266.369 65.5664C266.783 65.5664 267.18 65.738 267.472 66.0436C267.765 66.3491 267.929 66.7634 267.929 67.1955ZM315.574 119.37V77.746C315.574 67.2188 307.407 58.6848 297.332 58.6848H208.695C198.303 58.6848 189.799 67.57 189.799 78.4294V93.6817C189.516 93.6817 189.244 93.7993 189.043 94.0086C188.843 94.2179 188.73 94.5019 188.73 94.798V102.617C188.73 102.913 188.843 103.197 189.043 103.407C189.244 103.616 189.516 103.734 189.799 103.734V113.041C189.516 113.041 189.244 113.159 189.043 113.369C188.843 113.578 188.73 113.863 188.73 114.159V130.912C188.73 131.209 188.843 131.492 189.044 131.702C189.244 131.911 189.516 132.029 189.799 132.029V137.614C189.516 137.614 189.244 137.731 189.044 137.941C188.843 138.15 188.73 138.434 188.73 138.73V155.484C188.73 155.78 188.843 156.065 189.043 156.274C189.244 156.484 189.516 156.601 189.799 156.602V306.193C189.799 317.086 198.329 326 208.754 326H297.332C307.365 326 315.574 317.422 315.574 306.938V150.271H315.93C316.071 150.271 316.21 150.242 316.339 150.186C316.469 150.13 316.587 150.048 316.687 149.944C316.786 149.84 316.865 149.717 316.919 149.581C316.972 149.446 317 149.301 317 149.154V120.487C317 119.87 316.521 119.37 315.93 119.37H315.574V119.37Z" fill="#1D1D25"/>
<path fill-rule="evenodd" clip-rule="evenodd" d="M260.624 66.875H246.729C246.138 66.875 245.66 67.2581 245.66 67.8065C245.66 68.3542 246.138 68.7367 246.729 68.7367H260.624C261.215 68.7367 261.694 68.3542 261.694 67.8065C261.694 67.2581 261.215 66.875 260.624 66.875V66.875ZM266.37 65.567C265.956 65.5672 265.56 65.739 265.267 66.0446C264.975 66.3502 264.811 66.7647 264.811 67.1967C264.811 67.6288 264.976 68.0431 265.268 68.3485C265.561 68.6538 265.958 68.8253 266.371 68.8252C266.785 68.825 267.181 68.6532 267.474 68.3476C267.766 68.042 267.93 67.6275 267.93 67.1955C267.93 66.7634 267.766 66.3491 267.473 66.0437C267.18 65.7384 266.784 65.5669 266.37 65.567" fill="black"/>
<defs>
<filter id="filter0_d" x="0" y="0" width="208.27" height="347.315" filterUnits="userSpaceOnUse" color-interpolation-filters="sRGB">
<feFlood flood-opacity="0" result="BackgroundImageFix"/>
<feColorMatrix in="SourceAlpha" type="matrix" values="0 0 0 0 0 0 0 0 0 0 0 0 0 0 0 0 0 0 127 0"/>
<feOffset dy="20"/>
<feGaussianBlur stdDeviation="20"/>
<feColorMatrix type="matrix" values="0 0 0 0 0.421822 0 0 0 0 0.554338 0 0 0 0 0.89371 0 0 0 0.243444 0"/>
<feBlend mode="normal" in2="BackgroundImageFix" result="effect1_dropShadow"/>
<feBlend mode="normal" in="SourceGraphic" in2="effect1_dropShadow" result="shape"/>
</filter>
<filter id="filter1_d" x="184.106" y="83.6964" width="137.967" height="75.8854" filterUnits="userSpaceOnUse" color-interpolation-filters="sRGB">
<feFlood flood-opacity="0" result="BackgroundImageFix"/>
<feColorMatrix in="SourceAlpha" type="matrix" values="0 0 0 0 0 0 0 0 0 0 0 0 0 0 0 0 0 0 127 0"/>
<feOffset dy="10"/>
<feGaussianBlur stdDeviation="10"/>
<feColorMatrix type="matrix" values="0 0 0 0 0.421822 0 0 0 0 0.554338 0 0 0 0 0.89371 0 0 0 0.243444 0"/>
<feBlend mode="normal" in2="BackgroundImageFix" result="effect1_dropShadow"/>
<feBlend mode="normal" in="SourceGraphic" in2="effect1_dropShadow" result="shape"/>
</filter>
<filter id="filter2_d" x="184.106" y="128.151" width="137.967" height="75.8854" filterUnits="userSpaceOnUse" color-interpolation-filters="sRGB">
<feFlood flood-opacity="0" result="BackgroundImageFix"/>
<feColorMatrix in="SourceAlpha" type="matrix" values="0 0 0 0 0 0 0 0 0 0 0 0 0 0 0 0 0 0 127 0"/>
<feOffset dy="10"/>
<feGaussianBlur stdDeviation="10"/>
<feColorMatrix type="matrix" values="0 0 0 0 0.421822 0 0 0 0 0.554338 0 0 0 0 0.89371 0 0 0 0.243444 0"/>
<feBlend mode="normal" in2="BackgroundImageFix" result="effect1_dropShadow"/>
<feBlend mode="normal" in="SourceGraphic" in2="effect1_dropShadow" result="shape"/>
</filter>
<filter id="filter3_d" x="184.106" y="172.606" width="137.967" height="75.8854" filterUnits="userSpaceOnUse" color-interpolation-filters="sRGB">
<feFlood flood-opacity="0" result="BackgroundImageFix"/>
<feColorMatrix in="SourceAlpha" type="matrix" values="0 0 0 0 0 0 0 0 0 0 0 0 0 0 0 0 0 0 127 0"/>
<feOffset dy="10"/>
<feGaussianBlur stdDeviation="10"/>
<feColorMatrix type="matrix" values="0 0 0 0 0.421822 0 0 0 0 0.554338 0 0 0 0 0.89371 0 0 0 0.243444 0"/>
<feBlend mode="normal" in2="BackgroundImageFix" result="effect1_dropShadow"/>
<feBlend mode="normal" in="SourceGraphic" in2="effect1_dropShadow" result="shape"/>
</filter>
<filter id="filter4_d" x="184.106" y="217.062" width="137.967" height="75.8854" filterUnits="userSpaceOnUse" color-interpolation-filters="sRGB">
<feFlood flood-opacity="0" result="BackgroundImageFix"/>
<feColorMatrix in="SourceAlpha" type="matrix" values="0 0 0 0 0 0 0 0 0 0 0 0 0 0 0 0 0 0 127 0"/>
<feOffset dy="10"/>
<feGaussianBlur stdDeviation="10"/>
<feColorMatrix type="matrix" values="0 0 0 0 0.421822 0 0 0 0 0.554338 0 0 0 0 0.89371 0 0 0 0.243444 0"/>
<feBlend mode="normal" in2="BackgroundImageFix" result="effect1_dropShadow"/>
<feBlend mode="normal" in="SourceGraphic" in2="effect1_dropShadow" result="shape"/>
</filter>
<filter id="filter5_d" x="184.106" y="261.517" width="137.967" height="75.8854" filterUnits="userSpaceOnUse" color-interpolation-filters="sRGB">
<feFlood flood-opacity="0" result="BackgroundImageFix"/>
<feColorMatrix in="SourceAlpha" type="matrix" values="0 0 0 0 0 0 0 0 0 0 0 0 0 0 0 0 0 0 127 0"/>
<feOffset dy="10"/>
<feGaussianBlur stdDeviation="10"/>
<feColorMatrix type="matrix" values="0 0 0 0 0.421822 0 0 0 0 0.554338 0 0 0 0 0.89371 0 0 0 0.243444 0"/>
<feBlend mode="normal" in2="BackgroundImageFix" result="effect1_dropShadow"/>
<feBlend mode="normal" in="SourceGraphic" in2="effect1_dropShadow" result="shape"/>
</filter>
<filter id="filter6_d" x="148.73" y="38.6848" width="208.27" height="347.315" filterUnits="userSpaceOnUse" color-interpolation-filters="sRGB">
<feFlood flood-opacity="0" result="BackgroundImageFix"/>
<feColorMatrix in="SourceAlpha" type="matrix" values="0 0 0 0 0 0 0 0 0 0 0 0 0 0 0 0 0 0 127 0"/>
<feOffset dy="20"/>
<feGaussianBlur stdDeviation="20"/>
<feColorMatrix type="matrix" values="0 0 0 0 0.421822 0 0 0 0 0.554338 0 0 0 0 0.89371 0 0 0 0.243444 0"/>
<feBlend mode="normal" in2="BackgroundImageFix" result="effect1_dropShadow"/>
<feBlend mode="normal" in="SourceGraphic" in2="effect1_dropShadow" result="shape"/>
</filter>
<linearGradient id="paint0_linear" x1="90.6093" y1="22.94" x2="200.614" y2="241.318" gradientUnits="userSpaceOnUse">
<stop stop-color="#FF8F71"/>
<stop offset="1" stop-color="#FF3E55"/>
</linearGradient>
<linearGradient id="paint1_linear" x1="239.339" y1="61.6249" x2="349.344" y2="280.002" gradientUnits="userSpaceOnUse">
<stop stop-color="#FF8F71"/>
<stop offset="1" stop-color="#FF3E55"/>
</linearGradient>
<linearGradient id="paint2_linear" x1="197.438" y1="84.4355" x2="297.502" y2="121.509" gradientUnits="userSpaceOnUse">
<stop stop-color="#FF8F71"/>
<stop offset="1" stop-color="#FF3E55"/>
</linearGradient>
</defs>
</svg>
